HIERARCHY
ROOT SpineBase
{
  OFFSET 0.000000 0.000000 0.000000
  CHANNELS 6 Xposition Yposition Zposition Zrotation Xrotation Yrotation
  JOINT SpineMid
  {
    OFFSET -0.000000 30.087701 0.000000
    CHANNELS 3 Zrotation Xrotation Yrotation
    JOINT SpineShoulder
    {
      OFFSET 0.132858 22.423146 -0.617960
      CHANNELS 3 Zrotation Xrotation Yrotation
      JOINT Neck
      {
        OFFSET 0.106372 7.409252 -0.540269
        CHANNELS 3 Zrotation Xrotation Yrotation
        JOINT Head
        {
          OFFSET 4.227751 11.325180 3.071842
          CHANNELS 3 Zrotation Xrotation Yrotation
          End Site
          {
            OFFSET 0 0 0
          }
        }
      }
      JOINT ShoulderLeft
      {
        OFFSET -2.650547 -3.679595 -12.812290
        CHANNELS 3 Zrotation Xrotation Yrotation
        JOINT ElbowLeft
        {
          OFFSET 3.762257 -22.110775 -4.463795
          CHANNELS 3 Zrotation Xrotation Yrotation
          JOINT WristLeft
          {
            OFFSET 7.314525 -23.755174 2.915712
            CHANNELS 3 Zrotation Xrotation Yrotation
            JOINT HandLeft
            {
              OFFSET 1.216955 -8.579768 1.619706
              CHANNELS 3 Zrotation Xrotation Yrotation
              JOINT HandTipLeft
              {
                OFFSET 3.187074 -5.884375 1.585729
                CHANNELS 3 Zrotation Xrotation Yrotation
                End Site
                {
                  OFFSET 0 0 0
                }
              }
              JOINT ThumbLeft
              {
                OFFSET -7.340119 -0.393061 0.116447
                CHANNELS 3 Zrotation Xrotation Yrotation
                End Site
                {
                  OFFSET 0 0 0
                }
              }
            }
          }
        }
      }
      JOINT ShoulderRight
      {
        OFFSET 4.631224 1.217982 15.770264
        CHANNELS 3 Zrotation Xrotation Yrotation
        JOINT ElbowRight
        {
          OFFSET -2.649677 -15.649947 -20.474631
          CHANNELS 3 Zrotation Xrotation Yrotation
          JOINT WristRight
          {
            OFFSET -1.419506 -22.623842 -10.721222
            CHANNELS 3 Zrotation Xrotation Yrotation
            JOINT HandRight
            {
              OFFSET -0.260631 -6.942923 1.372116
              CHANNELS 3 Zrotation Xrotation Yrotation
              JOINT HandTipRight
              {
                OFFSET 0.832686 -4.443842 0.404796
                CHANNELS 3 Zrotation Xrotation Yrotation
                End Site
                {
                  OFFSET 0 0 0
                }
              }
              JOINT ThumbRight
              {
                OFFSET -7.731910 1.807918 0.723497
                CHANNELS 3 Zrotation Xrotation Yrotation
                End Site
                {
                  OFFSET 0 0 0
                }
              }
            }
          }
        }
      }
    }
  }
  JOINT HipLeft
  {
    OFFSET -0.920324 2.249954 -6.377222
    CHANNELS 3 Zrotation Xrotation Yrotation
    JOINT KneeLeft
    {
      OFFSET -7.090405 -32.444383 -1.489807
      CHANNELS 3 Zrotation Xrotation Yrotation
      JOINT AnkleLeft
      {
        OFFSET -6.827961 -31.698772 -1.616016
        CHANNELS 3 Zrotation Xrotation Yrotation
        JOINT FootLeft
        {
          OFFSET 4.528526 -6.070258 -4.208037
          CHANNELS 3 Zrotation Xrotation Yrotation
          End Site
          {
            OFFSET 0 0 0
          }
        }
      }
    }
  }
  JOINT HipRight
  {
    OFFSET 1.815004 0.911512 0.494087
    CHANNELS 3 Zrotation Xrotation Yrotation
    JOINT KneeRight
    {
      OFFSET -3.102544 -39.651814 -9.544503
      CHANNELS 3 Zrotation Xrotation Yrotation
      JOINT AnkleRight
      {
        OFFSET -21.303515 -10.329435 -12.665818
        CHANNELS 3 Zrotation Xrotation Yrotation
        JOINT FootRight
        {
          OFFSET 4.535816 -7.009167 3.990531
          CHANNELS 3 Zrotation Xrotation Yrotation
          End Site
          {
            OFFSET 0 0 0
          }
        }
      }
    }
  }
}
MOTION
Frames: 13
Frame Time: 0.033333
-27.061094 70.752566 232.422887 0.000000 0.000000 -68.293508 -0.000000 -0.000000 68.293508 -0.000000 0.000000 0.000000 -0.000000 0.000000 0.000000 0.000000 0.000000 0.000000 -0.000000 0.000000 0.000000 -0.000000 0.000000 0.000000 -0.000000 0.000000 0.000000 -0.000000 0.000000 0.000000 0.000000 0.000000 0.000000 0.000000 0.000000 0.000000 -0.000000 0.000000 0.000000 -0.000000 0.000000 0.000000 -0.000000 0.000000 0.000000 -0.000000 0.000000 0.000000 0.000000 0.000000 0.000000 0.000000 0.000000 0.000000 -0.000000 -0.000000 68.293508 -0.000000 0.000000 0.000000 -0.000000 0.000000 0.000000 0.000000 0.000000 0.000000 -0.000000 -0.000000 68.293508 -0.000000 0.000000 0.000000 -0.000000 0.000000 0.000000 0.000000 0.000000 0.000000
-26.731764 71.228633 232.794265 0.293165 -0.515319 -67.084661 -0.588798 -0.069383 67.085623 -0.000000 0.000000 0.000000 -0.000000 0.000000 0.000000 0.000000 0.000000 0.000000 -0.849819 0.524173 0.264735 -1.922703 1.846689 0.165222 -0.762790 0.357481 -0.682077 3.089344 3.948580 3.925778 0.000000 0.000000 0.000000 0.000000 0.000000 0.000000 0.424063 -1.310376 -0.333275 -0.431790 1.307851 0.343053 -0.587327 9.910102 -0.445646 0.517857 3.901349 3.172900 0.000000 0.000000 0.000000 0.000000 0.000000 0.000000 -0.588798 -0.069383 67.085623 -0.000000 0.000000 0.000000 -0.000000 0.000000 0.000000 0.000000 0.000000 0.000000 -0.588798 -0.069383 67.085623 -0.000000 0.000000 0.000000 -5.009971 6.066106 1.423886 0.000000 0.000000 0.000000
-26.428762 71.654783 233.111420 0.557364 -0.957888 -66.129202 -1.101486 -0.122082 66.132687 -0.000000 0.000000 0.000000 -0.000000 0.000000 0.000000 0.000000 0.000000 0.000000 -1.698696 1.057717 0.538977 -3.593751 3.488010 0.357101 -1.218766 0.672457 -1.275637 5.057494 7.064221 7.307313 0.000000 0.000000 0.000000 0.000000 0.000000 0.000000 0.743122 -2.156482 -0.608742 -0.766525 2.148279 0.637101 -1.220025 18.841313 -0.777590 0.437430 3.401487 5.322160 0.000000 0.000000 0.000000 0.000000 0.000000 0.000000 -2.330676 -0.097984 65.904669 0.479865 -1.131919 0.230398 -1.191638 -0.761223 0.253421 0.000000 0.000000 0.000000 -1.101486 -0.122082 66.132687 -0.000000 0.000000 0.000000 -8.969012 10.694608 2.974208 0.000000 0.000000 0.000000
-26.152087 72.031015 233.374350 0.790596 -1.323633 -65.430006 -0.387477 -0.017504 65.461444 -0.382859 0.200694 0.008133 -0.230168 0.778096 -0.026404 0.000000 0.000000 0.000000 -2.777185 2.378802 0.831059 -4.941501 4.865198 0.538974 -1.382059 0.933307 -1.754662 6.044182 9.335231 10.050180 0.000000 0.000000 0.000000 0.000000 0.000000 0.000000 0.730377 -1.761774 -0.872348 -0.999974 2.524691 0.876227 -1.915080 26.255773 -0.979578 0.233149 0.969804 6.683296 0.000000 0.000000 0.000000 0.000000 0.000000 0.000000 -3.218998 -0.155449 65.127902 0.697406 -1.535662 0.313556 -1.631862 -1.110713 0.291924 0.000000 0.000000 0.000000 -2.350063 0.550950 65.282578 -0.311861 -1.043604 0.154191 -11.847413 13.989608 4.387009 0.000000 0.000000 0.000000
-25.901740 72.357330 233.583058 0.991064 -1.609057 -64.986256 -0.432058 -0.021182 65.028625 -0.452139 0.250704 0.013645 -0.336114 0.976250 -0.035682 0.000000 0.000000 0.000000 -3.730754 3.128227 1.138696 -5.906058 5.932146 0.674471 -1.283402 1.139440 -2.100676 6.181872 10.841851 12.093391 0.000000 0.000000 0.000000 0.000000 0.000000 0.000000 0.746666 -1.484267 -1.063790 -0.368209 2.150204 0.687190 -3.668688 32.252765 -0.632226 0.023630 -1.990068 7.450259 0.000000 0.000000 0.000000 0.000000 0.000000 0.000000 -3.920337 -0.244732 64.627790 0.899934 -1.834614 0.374974 -1.967407 -1.437685 0.272562 0.000000 0.000000 0.000000 -2.982653 0.628031 64.822590 -0.295215 -1.360376 0.174466 -13.663502 16.132005 5.505935 0.000000 0.000000 0.000000
-25.677722 72.633728 233.737542 1.157207 -1.811284 -64.795880 -0.430025 -0.027126 64.848190 -0.491252 0.291111 0.020101 -0.456902 1.143373 -0.045203 0.000000 0.000000 0.000000 -4.698518 3.854767 1.459527 -6.441644 6.654913 0.732303 -0.958243 1.297715 -2.302422 5.565974 11.690855 13.397371 0.000000 0.000000 0.000000 0.000000 0.000000 0.000000 0.654651 -0.774915 -1.207894 -0.317910 1.678155 0.773256 -4.672790 36.239136 -0.520580 -0.195519 -4.883018 7.746372 0.000000 0.000000 0.000000 0.000000 0.000000 0.000000 -4.433052 -0.378931 64.400710 1.087525 -2.031088 0.414455 -2.197719 -1.741293 0.196025 0.000000 0.000000 0.000000 -3.525885 0.612157 64.634825 -0.205092 -1.640388 0.175371 -14.449017 17.280883 6.254720 0.000000 0.000000 0.000000
-25.521593 72.809672 233.715352 1.199484 -1.708330 -65.365410 -0.173145 -0.033966 65.422752 -0.475576 0.311036 0.028545 -0.619036 1.255145 -0.056420 0.000000 0.000000 0.000000 -5.863890 4.665087 1.856819 -6.042303 6.650468 0.553193 -0.839394 2.063327 -2.246935 5.134348 12.217009 14.527802 0.000000 0.000000 0.000000 0.000000 0.000000 0.000000 0.431665 0.938448 -1.404797 -0.133277 0.187223 0.897586 -6.779413 38.213473 -0.158430 -1.445176 -7.373122 7.137550 0.000000 0.000000 0.000000 0.000000 0.000000 0.000000 -4.379962 -0.660230 64.976234 1.239837 -1.989604 0.400713 -2.767723 -2.427686 0.050651 0.000000 0.000000 0.000000 -3.884068 0.058207 65.315285 0.368178 -1.846344 0.062044 -10.625409 14.155699 5.132411 0.000000 0.000000 0.000000
-25.316830 73.024779 233.765648 1.340004 -1.743635 -65.592685 -0.090744 -0.050727 65.658157 -0.451529 0.348919 0.037344 0.068865 1.069452 -0.224987 0.000000 0.000000 0.000000 -6.989631 5.416778 2.244418 -5.375065 6.408637 0.324207 -0.044093 2.461594 -2.023515 2.563181 11.125075 13.570822 0.000000 0.000000 0.000000 0.000000 0.000000 0.000000 0.121504 2.413648 -1.472544 0.022372 -0.994705 0.940549 -8.154393 39.446432 0.090811 -5.007356 -10.608774 4.731967 0.000000 0.000000 0.000000 0.000000 0.000000 0.000000 -4.478898 -0.972152 65.216483 1.408470 -1.924321 0.380874 -2.836525 -2.734313 -0.146326 0.000000 0.000000 0.000000 -4.304246 -0.247715 65.587178 0.664296 -2.073722 0.014465 -10.031960 13.865949 5.161338 0.000000 0.000000 0.000000
-25.120664 73.151189 233.790830 1.492608 -1.755199 -65.776134 -0.038919 -0.112985 65.849221 -0.388416 0.339429 0.046987 0.162900 1.223395 -0.342170 0.000000 0.000000 0.000000 -7.969489 6.065904 2.582698 -4.492031 5.946120 0.065993 0.865338 3.107332 -1.633091 -1.638510 8.823523 11.032723 0.000000 0.000000 0.000000 0.000000 0.000000 0.000000 -0.268719 3.634014 -1.382402 0.143040 -1.840920 0.879809 -8.231224 40.096467 0.071521 -5.344514 -13.369096 3.860856 0.000000 0.000000 0.000000 0.000000 0.000000 0.000000 -4.577469 -1.327245 65.410871 1.607395 -1.864745 0.361281 -2.389827 -2.642585 -0.382027 0.000000 0.000000 0.000000 -4.584675 -0.592335 65.813536 0.927038 -2.183591 -0.034789 -9.285909 13.852801 5.507220 0.000000 0.000000 0.000000
-25.016491 73.223022 233.826250 1.519784 -1.778592 -66.365192 0.017271 -0.106229 66.441230 -0.323227 0.333969 0.053826 0.250208 1.290289 -0.409702 0.000000 0.000000 0.000000 -8.739331 6.558338 2.858781 -3.961462 5.776235 -0.074952 2.995662 1.602298 -1.430670 -5.635050 8.271068 8.765856 0.000000 0.000000 0.000000 0.000000 0.000000 0.000000 -0.698226 4.504451 -1.105424 0.224702 -2.326694 0.696580 -6.855309 39.591371 -0.278057 -4.743128 -15.199382 3.598483 0.000000 0.000000 0.000000 0.000000 0.000000 0.000000 -4.631806 -1.515402 66.004389 0.916666 -1.828276 0.363694 -0.844250 -2.349732 -0.670832 0.000000 0.000000 0.000000 -4.527062 -0.706566 66.411171 0.940479 -2.086459 -0.046219 -8.476178 13.937878 5.964009 0.000000 0.000000 0.000000
-25.025746 73.293293 233.830273 1.402551 -1.758974 -67.132836 0.097163 -0.041848 67.205366 -0.248739 0.317437 0.057368 0.360987 1.344156 -0.464645 0.000000 0.000000 0.000000 -9.214722 6.826385 3.033935 -3.331883 5.490129 -0.206522 4.678285 -0.240677 -1.305901 -7.053551 7.046693 6.541863 0.000000 0.000000 0.000000 0.000000 0.000000 0.000000 -0.980073 4.920560 -0.856417 0.250212 -2.414324 0.531494 -5.340510 38.309842 -0.623117 -2.531529 -16.663766 4.245912 0.000000 0.000000 0.000000 0.000000 0.000000 0.000000 -4.488996 -1.481954 66.786479 1.717723 -1.791289 0.340835 -0.667844 -1.675576 -0.808596 0.000000 0.000000 0.000000 -4.208735 -0.644389 67.173024 0.825140 -1.869366 -0.039053 -7.897580 14.757256 6.937763 0.000000 0.000000 0.000000
-25.061435 73.362528 233.830363 1.254554 -1.735012 -67.681295 0.179655 0.056286 67.748973 -0.221061 0.322450 0.057748 0.487232 1.305163 -0.484111 0.000000 0.000000 0.000000 -9.390197 6.896783 3.098693 -2.593725 4.972050 -0.362562 5.504365 -2.147104 -1.321814 -10.187474 6.466101 4.231268 0.000000 0.000000 0.000000 0.000000 0.000000 0.000000 -1.151764 4.828070 -0.616064 0.219759 -2.077212 0.369209 -3.496119 36.261649 -0.952316 -0.196762 -16.713018 5.157468 0.000000 0.000000 0.000000 0.000000 0.000000 0.000000 -4.333177 -1.359328 67.347440 1.658352 -1.747957 0.332457 0.483267 -0.331814 -0.580488 0.000000 0.000000 0.000000 -3.905596 -0.700493 67.756540 0.874325 -1.613315 -0.072197 -7.049273 14.926358 7.465396 0.000000 0.000000 0.000000
-25.173600 73.389731 233.827095 1.023259 -1.687902 -68.091212 0.254863 0.179711 68.149944 -0.204667 0.332456 0.054350 0.625154 1.208142 -0.473057 0.000000 0.000000 0.000000 -9.354576 6.779813 3.089076 -1.663968 4.292563 -0.528532 5.852578 -4.435834 -1.447186 -11.024868 7.747777 3.912107 0.000000 0.000000 0.000000 0.000000 0.000000 0.000000 -1.167670 4.185510 -0.399145 0.137319 -1.331477 0.221285 -1.827267 33.582719 -1.152728 3.643009 -13.528543 7.225775 0.000000 0.000000 0.000000 0.000000 0.000000 0.000000 -4.169166 -1.071511 67.756014 1.536730 -1.771576 0.341626 1.270693 0.707151 -0.356718 0.000000 0.000000 0.000000 -3.767662 -0.494048 68.162974 0.838815 -1.624502 -0.063155 -7.849337 15.872866 7.928215 0.000000 0.000000 0.000000
